<svg width="80" height="30" viewBox="0 0 80 30" fill="none" xmlns="http://www.w3.org/2000/svg">
<path d="M6.26016 17.8331V22.3131H3.20016V17.8331H6.26016ZM6.36016 12.8931H5.64016V8.65309H8.22016C8.48016 8.65309 8.68016 8.55309 8.74016 8.33309C8.12016 7.71309 7.06016 6.85309 7.06016 6.85309L6.14016 8.09309H1.08016L1.24016 8.65309H3.90016V12.8931H0.660156L0.820156 13.4731H3.90016V17.2531H3.30016L1.48016 16.4731V24.7331H1.74016C2.46016 24.7331 3.20016 24.3531 3.20016 24.1731V22.8931H6.26016V24.1531H6.56016C7.12016 24.1531 7.98016 23.8131 8.02016 23.6731V18.1531C8.42016 18.0731 8.72016 17.8931 8.86016 17.7331L6.96016 16.2731L6.06016 17.2531H5.64016V13.4731H8.68016C8.96016 13.4731 9.16016 13.3731 9.22016 13.1531C8.52016 12.4731 7.36016 11.5131 7.36016 11.5131L6.36016 12.8931ZM15.4002 16.6331H11.6602V11.5731H15.4002V16.6331ZM11.6602 22.5331V17.2131H15.4002V22.5331H11.6602ZM17.2002 10.9931H17.1802V7.39309C17.7002 7.33309 17.8602 7.11309 17.9202 6.81309L15.4002 6.55309V10.9931H11.6602V7.39309C12.1802 7.31309 12.3402 7.11309 12.4002 6.83309L9.88016 6.57309V10.9931H8.14016L8.30016 11.5731H9.88016V25.0331H10.2202C10.8802 25.0331 11.6602 24.5931 11.6602 24.3731V23.1131H15.4002V24.9331H15.7602C16.4002 24.9331 17.1802 24.4931 17.1802 24.2731V11.5731H18.9002C19.1802 11.5731 19.3602 11.4731 19.4202 11.2531C18.9202 10.6131 18.0202 9.69309 18.0202 9.69309L17.2002 10.9931ZM36.4164 17.8331V22.3131H33.3564V17.8331H36.4164ZM36.5164 12.8931H35.7964V8.65309H38.3764C38.6364 8.65309 38.8364 8.55309 38.8964 8.33309C38.2764 7.71309 37.2164 6.85309 37.2164 6.85309L36.2964 8.09309H31.2364L31.3964 8.65309H34.0564V12.8931H30.8164L30.9764 13.4731H34.0564V17.2531H33.4564L31.6364 16.4731V24.7331H31.8964C32.6164 24.7331 33.3564 24.3531 33.3564 24.1731V22.8931H36.4164V24.1531H36.7164C37.2764 24.1531 38.1364 23.8131 38.1764 23.6731V18.1531C38.5764 18.0731 38.8764 17.8931 39.0164 17.7331L37.1164 16.2731L36.2164 17.2531H35.7964V13.4731H38.8364C39.1164 13.4731 39.3164 13.3731 39.3764 13.1531C38.6764 12.4731 37.5164 11.5131 37.5164 11.5131L36.5164 12.8931ZM45.5564 16.6331H41.8164V11.5731H45.5564V16.6331ZM41.8164 22.5331V17.2131H45.5564V22.5331H41.8164ZM47.3564 10.9931H47.3364V7.39309C47.8564 7.33309 48.0164 7.11309 48.0764 6.81309L45.5564 6.55309V10.9931H41.8164V7.39309C42.3364 7.31309 42.4964 7.11309 42.5564 6.83309L40.0364 6.57309V10.9931H38.2964L38.4564 11.5731H40.0364V25.0331H40.3764C41.0364 25.0331 41.8164 24.5931 41.8164 24.3731V23.1131H45.5564V24.9331H45.9164C46.5564 24.9331 47.3364 24.4931 47.3364 24.2731V11.5731H49.0564C49.3364 11.5731 49.5164 11.4731 49.5764 11.2531C49.0764 10.6131 48.1764 9.69309 48.1764 9.69309L47.3564 10.9931ZM76.7527 9.69309C76.6527 10.3531 76.5127 11.1531 76.3927 11.6931L76.5927 11.8331C77.2927 11.3931 78.2127 10.6331 78.7527 10.0731C79.1327 10.0331 79.3327 9.99309 79.4927 9.83309L77.6527 8.07309L76.6127 9.11309H70.8527C72.0927 8.89309 72.3927 6.45309 68.6127 6.41309L68.4527 6.55309C69.1127 7.07309 69.7727 8.03309 69.9127 8.89309C70.0927 9.01309 70.2927 9.09309 70.4727 9.11309H63.9327C63.8727 8.79309 63.7727 8.43309 63.6527 8.07309L63.3527 8.09309C63.4127 9.27309 62.6527 10.3131 61.9327 10.7131C61.4127 10.9531 61.0527 11.4531 61.2527 12.0331C61.5127 12.6531 62.3327 12.7331 62.9127 12.3531C63.5527 11.9331 64.0727 11.0131 63.9927 9.69309H76.7527ZM76.0527 13.1331C74.9527 14.1731 72.8727 15.6931 71.0127 16.7531C70.4927 15.8331 69.7727 14.9731 68.8527 14.2331C69.6727 13.7131 70.4127 13.1731 71.0527 12.5731H76.4127C76.6727 12.5731 76.8927 12.4731 76.9327 12.2531C76.1927 11.5731 74.9527 10.6331 74.9527 10.6331L73.8527 11.9931H63.9927L64.1527 12.5731H68.3527C66.7727 14.0931 64.4527 15.7131 62.0127 16.7531L62.1727 17.0331C64.4327 16.4331 66.6127 15.5531 68.4527 14.4731C68.5927 14.6531 68.7327 14.8531 68.8327 15.0331C67.2327 16.9531 64.3727 19.0131 61.8327 20.1731L61.9327 20.4531C64.7327 19.6731 67.7327 18.2531 69.7327 16.8731C69.8327 17.1131 69.9127 17.3731 69.9727 17.6331C68.0927 20.1131 64.6527 22.4131 61.3327 23.6131L61.4727 23.9331C64.7327 23.1731 68.0527 21.6731 70.3727 19.9731C70.4327 21.2731 70.2327 22.3731 69.8527 22.8931C69.7327 23.0531 69.5527 23.0931 69.2727 23.0931C68.7927 23.0931 67.4127 23.0131 66.5927 22.9331V23.2131C67.3727 23.3731 68.0527 23.6131 68.3127 23.8531C68.5927 24.1131 68.7327 24.4931 68.7527 25.0531C70.0527 25.0531 70.9127 24.8131 71.3727 24.2531C72.4127 23.0531 72.6327 19.9331 71.2327 17.1331C71.6127 17.0131 72.0327 16.9131 72.4527 16.7931C73.4327 20.1731 75.3127 22.2731 77.9727 23.7531C78.2727 22.8531 78.8327 22.2531 79.5727 22.1331L79.6127 21.9131C76.7727 21.0331 74.1327 19.3531 72.8727 16.6731C74.5727 16.1331 76.2527 15.4731 77.3727 14.8931C77.8127 15.0331 77.9927 14.9531 78.1327 14.7931L76.0527 13.1331Z" fill="#555555"/>
<path d="M20.625 13.75C22.3509 13.75 23.75 12.3509 23.75 10.625C23.75 8.89911 22.3509 7.5 20.625 7.5C18.8991 7.5 17.5 8.89911 17.5 10.625C17.5 12.3509 18.8991 13.75 20.625 13.75Z" fill="#FFA903"/>
<path d="M49.375 13.75C51.1009 13.75 52.5 12.3509 52.5 10.625C52.5 8.89911 51.1009 7.5 49.375 7.5C47.6491 7.5 46.25 8.89911 46.25 10.625C46.25 12.3509 47.6491 13.75 49.375 13.75Z" fill="#FFA903"/>
<path d="M70.625 11.6665C72.3509 11.6665 73.75 10.2674 73.75 8.5415C73.75 6.81561 72.3509 5.4165 70.625 5.4165C68.8991 5.4165 67.5 6.81561 67.5 8.5415C67.5 10.2674 68.8991 11.6665 70.625 11.6665Z" fill="#04BE17"/>
</svg>
